HIERARCHY
ROOT pelvis
{
  OFFSET 0 100 0
  CHANNELS 6 Xposition Yposition Zposition Zrotation Xrotation Yrotation
  JOINT pelvis_right_femur
  {
    OFFSET -10.78128 -3.44521 -0.5502486
    CHANNELS 3 Zrotation Xrotation Yrotation
    JOINT right_femur_tibia
    {
      OFFSET -0.8047443 -44.0398 -0.1307829
      CHANNELS 3 Zrotation Xrotation Yrotation
      JOINT right_tibia_foot
      {
        OFFSET 3.006224 -47.83518 -5
        CHANNELS 3 Zrotation Xrotation Yrotation
        End Site
        {
          OFFSET 0 -5 15
        }
      }
    }
  }
  JOINT pelvis_left_femur
  {
    OFFSET 10.78128 -3.44521 -0.5502486
    CHANNELS 3 Zrotation Xrotation Yrotation
    JOINT left_femur_tibia
    {
      OFFSET 0.8047443 -44.0398 -0.1307829
      CHANNELS 3 Zrotation Xrotation Yrotation
      JOINT left_tibia_foot
      {
        OFFSET -4.370144 -48.10324 -4.275266
        CHANNELS 3 Zrotation Xrotation Yrotation
        End Site
        {
          OFFSET 0 -5 15
        }
      }
    }
  }
  JOINT pelvis_spine1
  {
    OFFSET 0 6.468898 -3.129235
    CHANNELS 3 Zrotation Xrotation Yrotation
    JOINT spine1
    {
      OFFSET 0 23.15396 4.99043
      CHANNELS 3 Zrotation Xrotation Yrotation
      JOINT spine2
      {
        OFFSET 0 20.79997 -5.064912
        CHANNELS 3 Zrotation Xrotation Yrotation
        JOINT neck
        {
          OFFSET 0 14.38658 9.616178
          CHANNELS 3 Zrotation Xrotation Yrotation
          End Site
          {
            OFFSET 0 20 0
          }
        }
      }
      JOINT right_manubrium
      {
        OFFSET -5.722621 16.35077 3.967754
        CHANNELS 3 Zrotation Xrotation Yrotation
        JOINT right_clavicle
        {
          OFFSET -13.16364 1.694482 -4.693211
          CHANNELS 3 Zrotation Xrotation Yrotation
          JOINT right_humerus
          {
            OFFSET -28.5034 -0.3100689 -2.792744
            CHANNELS 3 Zrotation Xrotation Yrotation
            JOINT right_radius
            {
              OFFSET -25.15693 0.02248979 -1.271978
              CHANNELS 3 Zrotation Xrotation Yrotation
              End Site
              {
                OFFSET -15 0 0
              }
            }
          }
        }
      }
      JOINT left_manubrium
      {
        OFFSET 5.722621 16.35077 3.967754
        CHANNELS 3 Zrotation Xrotation Yrotation
        JOINT left_clavicle
        {
          OFFSET 13.16364 1.694482 -4.693211
          CHANNELS 3 Zrotation Xrotation Yrotation
          JOINT left_humerus
          {
            OFFSET 29.39168 -1.063119 -2.237045
            CHANNELS 3 Zrotation Xrotation Yrotation
            JOINT left_radius
            {
              OFFSET 24.59957 -0.9528479 0.9047498
              CHANNELS 3 Zrotation Xrotation Yrotation
              End Site
              {
                OFFSET 15 -0 -0
              }
            }
          }
        }
      }
    }
  }
}
MOTION
Frames: 15
Frame Time: 0.0416666666667
0 103.5113 0 2.656545 0.8883455 0.2209062 2.563857 -16.03992 11.08834 -0 36.36452 -0 -3.327833 -21.44882 -2.660497 -9.76465 9.162715 -23.75152 -0 3.9887 -0 23.05213 -8.804835 31.35629 -1.888046 -2.322281 5.932406 1.570475 10.57451 -6.755144 1.52294 20.8787 6.795479 3.16567 -23.97162 9.541395 5.399153 -19.60842 11.11347 85.87222 38.46276 -17.15496 -0 0 15.1939 -8.542074 9.104109 5.193127 6.772258 -21.11282 -0.9222066 -91.01501 21.11115 20.43678 0 0 -18.63668 14.13348 12.27555 -1.44007
0.3589963 103.5256 1.565792 1.970501 1.810152 0.421604 4.048238 -18.74318 12.17226 -0 36.93097 -0 -3.818688 -19.91324 -2.795224 -9.51533 9.003737 -23.3621 -0 4.740882 -0 23.79862 -8.91298 32.18106 -1.848328 -2.12604 5.622648 1.772283 10.64255 -6.949452 1.490808 20.74623 7.063842 3.260834 -24.46206 9.85362 5.381978 -19.40918 11.13451 86.77864 38.86574 -18.28055 -0 0 14.14745 -7.862422 8.945788 4.934996 6.769531 -21.21874 -1.260954 -90.26656 21.00939 19.67954 0 0 -20.32097 14.72212 11.41814 -1.96487
0.6500912 103.3709 3.487777 1.189725 1.725631 0.6124585 5.02661 -21.6176 10.34237 -0 34.0214 -0 -4.904932 -15.66173 -2.551708 -8.403415 10.35241 -22.24152 -0 5.302344 -0 18.61236 -13.09722 29.98152 -1.817546 -2.231689 5.620089 1.851634 10.66307 -7.056572 1.474878 20.68849 7.106324 3.256325 -24.78433 9.96182 5.361571 -19.50342 11.11868 87.0183 38.73305 -18.71774 -0 0 14.14202 -7.619055 8.917789 4.718576 6.858853 -21.33621 -1.211588 -90.4909 21.17569 19.89886 0 0 -20.362 14.84293 11.49613 -2.02174
0.9226554 103.1374 5.706469 0.6218478 1.965929 0.7715665 5.786778 -24.24837 9.268167 -0 31.49172 -0 -5.558924 -12.8467 -2.234758 -7.80482 11.02546 -21.2737 -0 5.932734 -0 16.09253 -15.3194 28.4536 -1.790506 -2.282003 5.565919 1.951042 10.68662 -7.1709 1.456117 20.62847 7.17207 3.262547 -25.0998 10.08079 5.345084 -19.53823 11.1154 87.32464 38.65335 -19.21778 -0 0 13.97539 -7.350346 8.876432 4.531848 6.914502 -21.43451 -1.231298 -90.55586 21.30356 19.95533 0 0 -20.62552 14.97604 11.43364 -2.096456
1.193911 102.8165 8.278564 0.09371457 2.382369 0.9425709 6.496619 -27.16254 8.240599 -0 28.40883 -0 -6.115084 -10.12088 -1.807704 -7.334587 11.61132 -20.18537 -0 6.748467 -0 14.22315 -17.10671 26.88896 -1.767959 -2.321549 5.439969 2.132687 10.71132 -7.344755 1.421255 20.56365 7.242618 3.25287 -25.4922 10.19741 5.341894 -19.51726 11.14291 87.71036 38.4387 -19.90789 -0 0 13.6391 -7.049211 8.839486 4.368701 6.920351 -21.53219 -1.315934 -90.58569 21.51965 19.95463 0 0 -20.98939 14.9704 11.32261 -2.015292
1.476804 102.4113 11.25216 -0.3205066 2.841503 1.156761 7.000392 -29.85435 7.165319 -0 25.00937 -0 -6.557797 -7.615149 -1.283667 -7.004077 12.16131 -19.04804 -0 7.81728 -0 12.89072 -18.35743 25.29216 -1.755034 -2.329404 5.279522 2.33457 10.73109 -7.520947 1.381789 20.50968 7.30777 3.238187 -25.84738 10.28869 5.349402 -19.44799 11.18888 88.0776 38.19548 -20.58256 -0 0 13.22066 -6.788797 8.807993 4.270033 6.879913 -21.60085 -1.445289 -90.54221 21.73631 19.87371 0 0 -21.39622 14.87254 11.16411 -1.84836
1.777739 101.9563 14.6947 -0.6742446 3.297909 1.44133 7.358563 -32.21856 6.035254 -0 21.49691 -0 -6.94784 -5.204516 -0.6951946 -6.73478 12.74548 -17.84475 -0 9.405956 -0 11.7426 -19.12337 23.55246 -1.751595 -2.316867 5.095128 2.551575 10.74416 -7.697116 1.338354 20.46856 7.361166 3.215717 -26.16055 10.34919 5.367412 -19.34066 11.25056 88.40781 37.91308 -21.22228 -0 0 12.7552 -6.579803 8.786424 4.23239 6.799469 -21.64379 -1.604406 -90.45848 21.96043 19.74443 0 0 -21.79174 14.67505 10.99176 -1.58839
2.099495 101.5161 18.66562 -1.00391 3.655056 1.807311 7.600133 -33.93963 4.864905 -0 18.25971 -0 -7.322899 -2.956174 -0.09299357 -6.460254 13.34918 -16.58516 -0 11.776 -0 10.46407 -19.31908 21.56316 -1.758294 -2.285417 4.910222 2.755406 10.74893 -7.85121 1.296103 20.44558 7.395889 3.188318 -26.38984 10.36959 5.393424 -19.20819 11.31963 88.66059 37.63129 -21.74651 -0 0 12.30127 -6.451289 8.778341 4.26115 6.689884 -21.65728 -1.772662 -90.34206 22.16139 19.57917 0 0 -22.12696 14.40385 10.82669 -1.269507
2.442532 101.1878 23.20717 -1.367553 3.838129 2.24217 7.820059 -34.72405 3.724834 -0 15.68312 -0 -7.727412 -1.002434 0.4575252 -6.101666 13.85853 -15.25916 -0 15.23101 -0 8.78346 -18.79498 19.22235 -1.774613 -2.242432 4.746892 2.92428 10.74476 -7.967995 1.259261 20.4439 7.40497 3.156898 -26.50899 10.34379 5.424731 -19.06641 11.38837 88.80553 37.37323 -22.09907 -0 0 11.91622 -6.423063 8.787959 4.352829 6.564472 -21.64234 -1.927691 -90.21529 22.32213 19.40333 0 0 -22.34907 14.07974 10.69791 -0.9175671
2.804333 101.0828 28.31737 -1.810416 3.784667 2.694742 8.126445 -34.25864 2.720933 -0 14.07794 -0 -8.210926 0.414522 0.8619486 -5.586094 14.0097 -13.86222 -0 20.02274 -0 6.556301 -17.36455 16.50952 -1.800087 -2.193182 4.628064 3.034689 10.73161 -8.030229 1.232565 20.4667 7.381739 3.123085 -26.48937 10.26612 5.458293 -18.93129 11.4491 88.81101 37.1664 -22.21908 -0 0 11.65736 -6.515861 8.818908 4.505596 6.436013 -21.59831 -2.048073 -90.09545 22.42196 19.23892 0 0 -22.41164 13.72698 10.62921 -0.5624601
3.176556 101.2985 33.92219 -2.335221 3.463303 3.064162 8.586779 -32.28778 1.970607 -0 13.53796 -0 -8.841116 1.011363 0.9988522 -4.871971 13.37689 -12.41031 -0 26.33548 -0 3.880989 -14.88751 13.57381 -1.834378 -2.141862 4.574759 3.065717 10.70966 -8.021721 1.22034 20.51695 7.31979 3.088308 -26.30538 10.1314 5.491219 -18.81778 11.49562 88.64601 37.03157 -22.04889 -0 0 11.57722 -6.749912 8.873984 4.720051 6.31451 -21.52276 -2.115423 -89.99881 22.44341 19.10785 0 0 -22.27232 13.36395 10.64041 -0.227384
3.542396 101.8881 39.85597 -2.84862 2.867613 3.206019 9.118372 -28.71962 1.548799 -0 13.82704 -0 -9.687053 0.6030169 0.7535736 -4.003797 11.45698 -10.97383 -0 34.24645 -0 1.176907 -11.45145 10.80235 -1.877372 -2.090062 4.604521 2.999917 10.67917 -7.927541 1.22615 20.59724 7.213725 3.054244 -25.93463 9.934948 5.520684 -18.73852 11.52394 88.28063 36.98084 -21.5345 -0 0 11.71938 -7.145568 8.954041 5.001718 6.205367 -21.41043 -2.116961 -89.93714 22.3719 19.02894 0 0 -21.8972 13.00053 10.74286 0.07415
3.881795 102.8486 45.87791 -3.11827 1.98929 2.983508 9.402935 -23.77253 1.413665 -0 14.33841 -0 -10.71072 -0.6889937 0.1334128 -3.172201 7.916631 -9.694491 -0 43.59609 -0 -0.9398175 -7.601835 8.732705 -1.928825 -2.03709 4.730231 2.825037 10.64043 -7.735486 1.252311 20.70916 7.060013 3.022984 -25.36159 9.673475 5.543514 -18.70401 11.53258 87.68914 37.01232 -20.63084 -0 0 12.116 -7.721506 9.056612 5.360462 6.108969 -21.25347 -2.046875 -89.91926 22.19832 19.01973 0 0 -21.26203 12.63524 10.93768 0.3422343
4.186212 104.1238 51.74287 -2.831741 0.8148546 2.378479 8.990785 -18.0281 1.357629 -0 14.21425 -0 -11.56978 -2.356916 -0.57046 -2.669392 2.890967 -8.722246 -0 53.45666 -0 -2.069534 -4.375052 7.772117 -1.987589 -1.981389 4.959676 2.535482 10.59389 -7.437884 1.299599 20.85196 6.858441 2.997282 -24.58425 9.347737 5.555443 -18.72449 11.52218 86.85591 37.10656 -19.31071 -0 0 12.78713 -8.48931 9.174055 5.806204 6.022173 -21.043 -1.906246 -89.95509 21.92186 19.10086 0 0 -20.35418 12.25699 11.2155 0.5900417
4.456604 105.5726 57.29912 -1.867837 -0.5824649 1.580881 7.747173 -12.17005 1.137461 -0 12.7896 -0 -11.69434 -3.809286 -0.879196 -2.581704 -3.025726 -8.014064 -0 61.40526 -0 -2.396274 -2.766433 7.958468 -2.05074 -1.923094 5.29538 2.133828 10.54024 -7.033946 1.367069 21.02113 6.613893 2.980513 -23.62283 8.966313 5.550649 -18.81232 11.49448 85.78427 37.22708 -17.57757 -0 0 13.74036 -9.44419 9.292137 6.341044 5.941508 -20.77213 -1.70128 -90.06081 21.55306 19.30103 0 0 -19.17479 11.85233 11.55879 0.8377234
